<svg width="3886" height="2646" viewBox="0 0 3886 2646" fill="none" xmlns="http://www.w3.org/2000/svg">
<g clip-path="url(#clip0_4663_1537)">
<path d="M1500.37 1000.19C1500.37 1000.19 1234.87 1000.28 1230.57 1000.19C1211.79 1000.19 1193.01 1000.47 1174.52 1004.39C1144.62 1010.75 1117.34 1024.57 1093.05 1042.79C1088.75 1046.06 1081.47 1051.95 1080.44 1052.88C1085.2 1049.14 1090.15 1045.69 1095.39 1042.51C1118.09 1028.68 1144.62 1020.65 1173.21 1020.65C1255.7 1020.65 1322.59 1087.54 1322.59 1170.03C1322.59 1214.22 1303.44 1253.83 1272.98 1281.21C1270.27 1283.73 1267.19 1286.44 1263.64 1289.24C1260.09 1292.14 1256.45 1294.94 1252.71 1297.65C1212.63 1326.7 1164.61 1339.22 1115.19 1340.25C1112.95 1340.25 1029.9 1340.25 1005.42 1340.25V1494.96C1005.42 1620.33 1055.21 1670.22 1180.49 1670.22H1500.28C1625.65 1670.22 1675.54 1620.43 1675.54 1494.96V1175.17C1675.54 1049.8 1625.75 999.91 1500.28 999.91" fill="#D23A39"/>
<path d="M1165.18 670.221H845.388C720.015 670.221 670.127 720.015 670.127 845.482V1165.27C670.127 1290.64 719.921 1340.53 845.388 1340.53H1005.42H1025.79H1083.8C1089.5 1340.53 1095.29 1340.53 1100.99 1340.44H1102.21C1106.51 1340.44 1110.9 1340.44 1115.29 1340.44C1164.71 1339.41 1212.63 1326.89 1252.81 1297.84C1257.1 1294.66 1261.31 1291.3 1265.42 1287.84C1265.04 1288.12 1264.58 1288.49 1264.2 1288.77C1264.02 1288.96 1263.83 1289.05 1263.55 1289.24C1263.27 1289.43 1263.08 1289.61 1262.8 1289.8C1262.62 1289.9 1262.33 1290.08 1262.15 1290.27C1261.87 1290.46 1261.68 1290.64 1261.49 1290.74C1261.21 1290.92 1261.03 1291.11 1260.84 1291.2C1260.56 1291.39 1260.37 1291.58 1260.19 1291.67C1259.91 1291.86 1259.72 1291.95 1259.53 1292.14C1259.25 1292.32 1259.07 1292.51 1258.78 1292.6C1258.5 1292.7 1258.32 1292.88 1258.13 1293.07C1257.76 1293.35 1257.38 1293.54 1257.01 1293.82C1256.73 1294.01 1256.45 1294.19 1256.17 1294.38C1255.89 1294.57 1255.61 1294.75 1255.42 1294.94C1255.14 1295.03 1254.95 1295.22 1254.77 1295.41C1254.49 1295.5 1254.3 1295.69 1254.02 1295.87C1253.74 1295.97 1253.55 1296.15 1253.37 1296.34C1253.09 1296.43 1252.9 1296.62 1252.62 1296.81C1252.43 1297 1252.15 1297.09 1251.96 1297.28C1251.68 1297.46 1251.5 1297.56 1251.22 1297.74C1250.94 1297.84 1250.75 1298.02 1250.56 1298.12C1250.28 1298.3 1249.91 1298.49 1249.72 1298.68C1249.44 1298.86 1249.07 1299.05 1248.79 1299.14C1248.41 1299.33 1248.13 1299.52 1247.76 1299.8C1247.57 1299.89 1247.29 1300.08 1247.11 1300.17C1246.83 1300.27 1246.55 1300.45 1246.27 1300.64C1245.99 1300.73 1245.8 1300.92 1245.61 1301.01C1245.33 1301.11 1245.05 1301.29 1244.86 1301.39C1244.58 1301.48 1244.4 1301.67 1244.12 1301.76C1243.84 1301.85 1243.56 1302.04 1243.28 1302.13C1243.09 1302.23 1242.81 1302.41 1242.62 1302.51C1242.34 1302.6 1242.06 1302.79 1241.78 1302.97C1241.6 1303.07 1241.41 1303.25 1241.13 1303.35C1240.66 1303.63 1240.19 1303.82 1239.73 1304.1C1239.54 1304.19 1239.35 1304.28 1239.07 1304.38C1238.79 1304.47 1238.42 1304.66 1238.14 1304.84C1237.95 1304.94 1237.67 1305.03 1237.48 1305.22C1237.2 1305.31 1236.92 1305.5 1236.64 1305.59C1236.36 1305.68 1236.18 1305.87 1235.9 1305.96C1235.62 1306.06 1235.34 1306.24 1235.06 1306.34L1234.31 1306.62C1234.31 1306.62 1233.65 1306.9 1233.37 1306.99C1233.19 1306.99 1233 1307.18 1232.72 1307.27C1232.25 1307.46 1231.79 1307.65 1231.32 1307.93C1231.13 1307.93 1230.94 1308.11 1230.76 1308.21C1230.38 1308.3 1230.01 1308.49 1229.64 1308.67C1229.45 1308.77 1229.17 1308.86 1228.98 1308.95C1228.7 1309.05 1228.33 1309.23 1228.05 1309.33C1227.77 1309.42 1227.58 1309.51 1227.3 1309.61C1227.02 1309.7 1226.65 1309.89 1226.46 1309.98C1226.18 1310.07 1225.99 1310.17 1225.71 1310.26C1225.43 1310.35 1225.06 1310.54 1224.78 1310.64C1224.59 1310.64 1224.31 1310.73 1224.12 1310.92C1223.75 1311.01 1223.38 1311.2 1223 1311.29C1222.82 1311.29 1222.72 1311.38 1222.54 1311.48C1221.98 1311.66 1221.51 1311.85 1220.95 1312.04C1220.76 1312.04 1220.57 1312.13 1220.39 1312.22C1220.01 1312.32 1219.73 1312.41 1219.36 1312.6L1218.61 1312.78C1218.61 1312.78 1217.96 1312.97 1217.68 1313.06C1217.4 1313.06 1217.21 1313.16 1217.02 1313.25C1216.65 1313.34 1216.37 1313.44 1216.09 1313.53C1215.81 1313.53 1215.62 1313.62 1215.44 1313.72C1215.06 1313.81 1214.69 1314 1214.32 1314.09C1214.13 1314.09 1213.94 1314.19 1213.76 1314.19C1213.29 1314.37 1212.73 1314.47 1212.17 1314.65C1211.98 1314.65 1211.79 1314.75 1211.7 1314.75C1211.33 1314.84 1210.95 1314.93 1210.58 1315.03C1210.3 1315.03 1210.11 1315.12 1209.92 1315.21C1209.55 1315.31 1209.27 1315.4 1208.9 1315.49C1208.62 1315.49 1208.43 1315.59 1208.24 1315.68C1207.87 1315.68 1207.5 1315.87 1207.22 1315.96C1207.03 1315.96 1206.75 1316.05 1206.56 1316.15C1206.19 1316.15 1205.81 1316.33 1205.44 1316.43C1205.25 1316.43 1205.07 1316.52 1204.79 1316.52C1204.23 1316.61 1203.67 1316.8 1203.1 1316.89C1203.1 1316.89 1203.01 1316.89 1202.82 1316.89C1202.36 1316.99 1201.89 1317.08 1201.33 1317.17C1201.14 1317.17 1200.96 1317.27 1200.68 1317.27C1200.3 1317.27 1199.93 1317.36 1199.55 1317.46C1199.37 1317.46 1199.09 1317.46 1198.9 1317.55C1198.53 1317.55 1198.15 1317.64 1197.87 1317.74C1197.59 1317.74 1197.41 1317.74 1197.22 1317.83C1196.85 1317.83 1196.47 1317.92 1196.1 1318.02C1195.91 1318.02 1195.72 1318.02 1195.44 1318.11C1194.98 1318.11 1194.51 1318.2 1194.14 1318.3C1194.04 1318.3 1193.86 1318.3 1193.76 1318.3C1193.2 1318.3 1192.64 1318.39 1192.08 1318.48C1191.89 1318.48 1191.71 1318.48 1191.61 1318.48C1191.24 1318.48 1190.77 1318.58 1190.4 1318.67C1190.12 1318.67 1189.93 1318.67 1189.75 1318.67C1189.37 1318.67 1189 1318.67 1188.62 1318.76C1188.44 1318.76 1188.16 1318.76 1187.97 1318.76C1187.6 1318.76 1187.22 1318.86 1186.85 1318.86C1186.66 1318.86 1186.38 1318.86 1186.2 1318.86C1185.73 1318.86 1185.35 1318.86 1184.89 1318.95C1184.79 1318.95 1184.61 1318.95 1184.42 1318.95C1183.77 1318.95 1183.21 1318.95 1182.65 1319.04C1182.55 1319.04 1182.36 1319.04 1182.27 1319.04C1181.8 1319.04 1181.34 1319.04 1180.87 1319.04H1180.22C1180.22 1319.04 1179.47 1319.04 1179 1319.14H1178.35C1178.35 1319.14 1177.6 1319.14 1177.23 1319.14H1176.57C1176.57 1319.14 1175.73 1319.14 1175.36 1319.14H1173.02C1142.75 1319.14 1114.54 1310.07 1091 1294.66C1090.53 1294.38 1089.97 1294.01 1089.5 1293.73C1078.01 1285.97 1067.73 1276.72 1058.86 1266.26C1058.49 1265.79 1058.11 1265.33 1057.74 1264.86C1056.99 1263.92 1056.24 1262.99 1055.5 1262.06C1055.12 1261.59 1054.75 1261.12 1054.38 1260.65C1053.63 1259.72 1052.88 1258.69 1052.23 1257.76C1050.83 1255.8 1049.42 1253.83 1048.12 1251.87C1047.46 1250.84 1046.81 1249.82 1046.15 1248.79C1045.5 1247.76 1044.85 1246.73 1044.29 1245.71C1043.07 1243.65 1041.86 1241.5 1040.74 1239.35C1037.09 1232.44 1033.92 1225.15 1031.39 1217.68C1031.02 1216.56 1030.65 1215.34 1030.27 1214.22C1025.88 1200.21 1023.55 1185.26 1023.55 1169.85C1023.55 1169.19 1023.55 1168.54 1023.55 1167.88V1167.23C1023.55 1167.23 1023.55 1166.39 1023.55 1165.92V1165.18C1023.55 1165.18 1023.55 1164.43 1023.55 1164.05C1023.55 1163.77 1023.55 1163.49 1023.55 1163.21C1023.55 1162.84 1023.55 1162.47 1023.55 1162.09C1023.55 1161.81 1023.55 1161.53 1023.55 1161.25C1023.55 1160.88 1023.55 1160.5 1023.55 1160.13C1023.55 1159.85 1023.55 1159.57 1023.55 1159.29C1023.55 1158.92 1023.55 1158.54 1023.64 1158.17C1023.64 1157.89 1023.64 1157.61 1023.64 1157.33C1023.64 1156.95 1023.64 1156.58 1023.64 1156.21C1023.64 1155.93 1023.64 1155.65 1023.73 1155.37C1023.73 1154.99 1023.73 1154.62 1023.83 1154.34C1023.83 1154.06 1023.83 1153.78 1023.83 1153.5C1023.83 1153.12 1023.92 1152.75 1023.92 1152.38C1023.92 1152.1 1023.92 1151.82 1024.01 1151.54C1024.01 1151.16 1024.01 1150.88 1024.11 1150.51C1024.11 1150.23 1024.11 1149.95 1024.2 1149.67C1024.2 1149.29 1024.29 1149.01 1024.29 1148.64C1024.29 1148.36 1024.39 1148.08 1024.39 1147.8C1024.39 1147.43 1024.48 1147.05 1024.57 1146.77C1024.57 1146.49 1024.57 1146.21 1024.67 1145.93C1024.67 1145.56 1024.76 1145.18 1024.85 1144.9C1024.85 1144.62 1024.85 1144.34 1024.95 1144.06C1024.95 1143.69 1025.04 1143.31 1025.13 1143.03C1025.13 1142.75 1025.23 1142.47 1025.32 1142.19C1025.32 1141.82 1025.41 1141.45 1025.51 1141.17C1025.51 1140.89 1025.6 1140.61 1025.6 1140.33C1025.6 1139.95 1025.69 1139.58 1025.88 1139.3C1025.88 1139.02 1025.97 1138.74 1025.97 1138.55C1026.07 1138.18 1026.16 1137.8 1026.26 1137.43C1026.26 1137.15 1026.35 1136.96 1026.44 1136.68C1026.54 1136.31 1026.63 1135.93 1026.72 1135.65C1026.72 1135.37 1026.82 1135.19 1026.91 1134.91C1026.91 1134.53 1027.1 1134.16 1027.19 1133.79C1027.19 1133.51 1027.28 1133.32 1027.38 1133.04C1027.47 1132.66 1027.56 1132.29 1027.66 1131.92C1027.66 1131.64 1027.75 1131.45 1027.84 1131.17C1027.94 1130.8 1028.03 1130.42 1028.12 1130.05C1028.12 1129.77 1028.22 1129.58 1028.31 1129.3C1028.4 1128.93 1028.5 1128.55 1028.59 1128.18C1028.59 1127.9 1028.68 1127.71 1028.78 1127.53C1028.87 1127.15 1028.96 1126.78 1029.15 1126.41C1029.15 1126.12 1029.24 1125.94 1029.34 1125.75C1029.43 1125.38 1029.52 1125 1029.71 1124.63C1029.71 1124.35 1029.81 1124.16 1029.9 1123.98C1029.99 1123.6 1030.18 1123.23 1030.27 1122.86C1030.27 1122.67 1030.37 1122.48 1030.46 1122.2C1030.55 1121.83 1030.74 1121.45 1030.83 1120.99C1030.83 1120.8 1030.93 1120.61 1031.02 1120.43C1031.11 1120.05 1031.3 1119.68 1031.39 1119.21C1031.39 1119.02 1031.49 1118.84 1031.58 1118.65C1031.67 1118.28 1031.86 1117.9 1032.05 1117.44C1032.05 1117.25 1032.14 1117.06 1032.23 1116.88C1032.42 1116.5 1032.51 1116.04 1032.7 1115.66C1032.7 1115.47 1032.79 1115.29 1032.89 1115.19C1033.08 1114.82 1033.17 1114.35 1033.36 1113.98C1033.36 1113.79 1033.45 1113.7 1033.54 1113.51C1033.73 1113.05 1033.92 1112.67 1034.1 1112.2C1034.1 1112.11 1034.2 1111.92 1034.29 1111.83C1034.48 1111.36 1034.66 1110.99 1034.85 1110.52C1034.85 1110.43 1034.85 1110.34 1034.94 1110.15C1035.13 1109.68 1035.32 1109.22 1035.6 1108.75C1035.6 1108.65 1035.69 1108.56 1035.69 1108.47C1035.88 1108 1036.16 1107.53 1036.34 1106.97C1036.34 1106.97 1036.34 1106.88 1036.34 1106.79C1036.63 1106.32 1036.81 1105.76 1037.09 1105.2C1037.09 1105.2 1037.09 1105.2 1037.09 1105.1C1044.85 1089.04 1055.4 1074.46 1068.11 1062.22C1076.05 1054.56 1087.54 1045.59 1091.84 1042.32C1116.13 1024.2 1143.41 1010.37 1173.3 1003.93C1191.8 999.91 1210.58 999.724 1229.36 999.724C1231.6 999.724 1251.68 999.724 1260.75 999.724H1339.13V845.015C1339.13 719.642 1289.33 669.754 1163.96 669.754" fill="#C4C6C7"/>
<path d="M3274.85 1638.63C3274.85 1622.66 3287.93 1609.58 3303.91 1609.58C3319.88 1609.58 3332.96 1622.66 3332.96 1638.63C3332.96 1654.61 3319.88 1667.69 3303.91 1667.69C3287.93 1667.69 3274.85 1654.61 3274.85 1638.63ZM3325.86 1638.63C3325.86 1624.99 3316.05 1615.18 3303.91 1615.18C3291.76 1615.18 3281.95 1624.99 3281.95 1638.63C3281.95 1652.27 3291.76 1662.08 3303.91 1662.08C3316.05 1662.08 3325.86 1652.27 3325.86 1638.63ZM3292.69 1622H3304.93C3312.78 1622 3317.08 1624.71 3317.08 1631.63C3317.08 1637.23 3313.9 1640.04 3308.48 1640.5L3317.26 1654.89H3311.01L3302.5 1640.69H3298.77V1654.89H3292.69V1622ZM3298.77 1636.11H3304.19C3307.83 1636.11 3310.91 1635.64 3310.91 1631.25C3310.91 1627.33 3307.36 1626.77 3304.28 1626.77H3298.77V1636.21V1636.11ZM1775.79 1450.48C1775.79 1464.59 1780.18 1467.2 1791.67 1467.2H1836.6C1850.71 1467.2 1854.26 1464.59 1854.26 1450.48V1142.09C1854.26 1112.1 1856.04 1046.89 1940.58 1046.89C2025.13 1046.89 2025.23 1123.59 2025.23 1155.26V1451.32C2025.23 1466.36 2030.46 1467.2 2042.88 1467.2H2088.75C2101.93 1467.2 2103.7 1462.81 2103.7 1450.48V1142.09C2103.7 1114.81 2103.7 1091.83 2128.36 1069.78C2138.92 1061 2158.35 1049.51 2189.18 1049.51C2272.89 1049.51 2273.82 1116.49 2274.66 1163.2V1450.48C2274.66 1465.52 2279.06 1467.2 2290.55 1467.2H2337.26C2349.59 1466.36 2353.14 1462.81 2353.14 1450.48V1142.09C2353.14 1095.38 2353.98 1000.18 2210.39 1000.18C2120.52 1000.18 2089.69 1032.79 2070.26 1053.06C2056.99 1036.34 2027.93 1000.18 1938.06 1000.18C1886.96 1000.18 1826.98 1014.29 1797.93 1035.4C1776.81 1051.28 1775.88 1066.23 1775.88 1096.22V1450.48H1775.79ZM2534.57 1027.46C2534.57 1013.35 2531.02 1010.74 2516.91 1010.74H2471.13C2456.09 1010.74 2456.09 1016.06 2456.09 1027.46V1451.32C2456.09 1463.65 2456.09 1467.2 2469.26 1467.2H2516.82C2530.08 1467.2 2534.47 1466.36 2534.47 1451.32V1027.46H2534.57ZM2638.55 1450.48C2638.55 1464.59 2642.94 1467.2 2654.43 1467.2H2699.37C2713.47 1467.2 2717.02 1464.59 2717.02 1450.48V1142.09C2717.02 1112.1 2718.8 1046.89 2803.35 1046.89C2887.89 1046.89 2887.99 1123.59 2887.99 1155.26V1451.32C2887.99 1466.36 2893.31 1467.2 2905.64 1467.2H2951.42C2964.69 1467.2 2966.46 1462.81 2966.46 1450.48V1142.09C2966.46 1114.81 2966.46 1091.83 2991.13 1069.78C3001.68 1061 3021.11 1049.51 3051.94 1049.51C3135.65 1049.51 3136.58 1116.49 3137.43 1163.2V1450.48C3137.43 1465.52 3141.82 1467.2 3153.31 1467.2H3200.02C3212.35 1466.36 3215.9 1462.81 3215.9 1450.48V1142.09C3215.9 1095.38 3216.84 1000.18 3073.15 1000.18C2983.28 1000.18 2952.45 1032.79 2933.02 1053.06C2919.75 1036.34 2890.7 1000.18 2800.82 1000.18C2749.72 1000.18 2689.74 1014.29 2660.69 1035.4C2639.57 1051.28 2638.64 1066.23 2638.64 1096.22V1450.48H2638.55ZM1819.88 1595.29C1810.26 1590.8 1799.98 1586.22 1799.98 1574.08C1799.98 1565.67 1806.43 1559.41 1815.02 1559.41C1824.09 1559.41 1828.66 1567.17 1830.91 1570.9C1833.43 1575.11 1835.76 1578.38 1841.37 1578.38C1846.97 1578.38 1850.99 1573.99 1850.99 1568.66C1850.99 1566.98 1850.52 1563.24 1847.07 1558.85C1841.74 1552.31 1830.44 1546.05 1815.77 1546.05C1796.62 1546.05 1779.43 1556.8 1779.43 1579.12C1779.43 1598.65 1794.94 1607.71 1802.51 1611.82L1811.57 1616.68C1822.31 1622.38 1833.8 1626.77 1833.8 1640.32C1833.8 1649.94 1827.08 1656.1 1817.64 1656.1C1806.52 1656.1 1801.76 1646.48 1799.8 1642.65C1796.99 1637.33 1794.56 1632.75 1787.84 1632.75C1781.77 1632.75 1777.93 1637.51 1777.93 1643.02C1777.93 1645.36 1778.4 1650.5 1783.35 1656.48C1792.23 1667.97 1806.62 1670.58 1816.52 1670.58C1836.23 1670.58 1855.38 1659.28 1855.38 1635.92C1855.38 1612.57 1834.46 1602.39 1828.1 1599.4L1820.07 1595.47L1819.88 1595.29ZM2015.23 1670.4C2007.29 1670.4 1999.53 1668.72 1992.53 1665.35C1970.48 1655.08 1961.51 1631.53 1961.51 1608.46C1961.51 1575.67 1980.01 1545.96 2015.79 1545.96C2051.57 1545.96 2068.95 1576.32 2068.95 1608.46C2068.95 1640.6 2050.08 1670.4 2015.23 1670.4ZM2037.28 1573.05C2032.05 1565.3 2024.48 1560.44 2015.04 1560.44C2008.78 1560.44 2003.46 1562.77 1998.69 1566.7C1987.58 1575.76 1985.43 1593.32 1985.43 1606.59C1985.43 1617.71 1986.74 1630.88 1992.71 1640.41C1997.76 1648.72 2005.7 1654.42 2015.6 1654.42C2021.49 1654.42 2027.09 1652.09 2031.58 1648.35C2042.88 1639.1 2045.22 1621.44 2045.22 1607.71C2045.22 1595.94 2043.91 1582.95 2037.28 1573.05ZM2204.32 1613.32H2236.45C2239.35 1613.32 2240.19 1612.66 2240.19 1609.67V1601.73C2240.19 1598.56 2239.16 1598.56 2236.64 1598.56H2204.32V1563.8H2243.18C2246.17 1563.8 2246.73 1562.96 2246.73 1560.16V1551.84C2246.73 1548.85 2245.8 1548.85 2243.09 1548.85H2185.17C2182.27 1548.85 2181.62 1549.88 2181.62 1552.68V1664.14C2181.62 1667.22 2182.46 1667.69 2185.17 1667.69H2200.67C2203.57 1667.69 2204.41 1667.03 2204.41 1664.33V1613.32H2204.32ZM2399.57 1563.8H2425.17C2427.22 1563.8 2428.91 1563.62 2428.91 1560.25V1551.94C2428.91 1549.23 2427.69 1548.76 2425.17 1548.76H2351.08C2348.56 1548.76 2347.53 1549.6 2347.53 1552.12V1560.07C2347.53 1563.71 2349.22 1563.71 2351.08 1563.71H2376.68V1663.58C2376.68 1666.94 2377.34 1667.6 2380.7 1667.6H2396.02C2399.1 1667.6 2399.57 1666.38 2399.57 1663.67V1563.62V1563.8ZM2629.3 1629.29L2605.38 1552.68C2604.73 1550.63 2604.73 1548.76 2601.83 1548.76H2596.97C2595.11 1548.76 2594.45 1549.42 2593.61 1552.12L2570.07 1629.2L2550.64 1552.22C2549.8 1549.04 2548.49 1548.67 2546.62 1548.67H2530.46C2528.12 1548.67 2527.28 1549.88 2527.28 1551.38C2527.28 1552.22 2527.47 1552.87 2527.75 1553.9L2559.23 1664.42C2560.07 1667.22 2561.1 1667.6 2563.9 1667.6H2569.97C2572.96 1667.6 2573.52 1667.13 2574.37 1664.23L2596.88 1592.48L2620.8 1663.86C2621.82 1666.66 2622.1 1667.5 2625.19 1667.5H2632.29C2635 1667.5 2635.37 1666.47 2636.02 1664.14L2667.04 1553.81C2667.42 1552.78 2667.7 1551.47 2667.7 1550.63C2667.7 1549.32 2666.85 1548.57 2664.33 1548.57H2652.75C2650.23 1548.57 2649.57 1549.42 2648.82 1551.94L2629.3 1629.01V1629.29ZM2781.11 1630.51L2769.15 1664.51C2768.5 1666.19 2768.31 1667.69 2765.14 1667.69H2753.64C2752.34 1667.69 2750.47 1667.5 2750.47 1665.54C2750.47 1665.07 2750.93 1663.86 2751.5 1662.36L2792.6 1552.03C2793.63 1549.32 2794.1 1548.85 2796.62 1548.85H2806.33C2809.23 1548.85 2809.7 1549.32 2810.54 1551.66L2851.27 1662.64C2851.55 1663.48 2852.11 1664.98 2852.11 1665.82C2852.11 1667.03 2851.27 1667.69 2849.31 1667.69H2831.65C2828.85 1667.69 2828.29 1666.66 2827.73 1665.17L2815.3 1630.51H2781.11ZM2798.21 1578.94L2785.41 1617.8H2811.19L2798.21 1578.94ZM3037 1662.08C3037.65 1663.11 3038.49 1664.42 3038.49 1665.26C3038.49 1667.6 3036.16 1667.6 3035.59 1667.6H3018.12C3014.76 1667.6 3014.11 1667.13 3012.43 1664.23L2987.48 1621.16C2986.64 1619.67 2984.49 1616.77 2981.22 1616.77C2977.67 1616.77 2977.67 1620.32 2977.67 1622V1663.58C2977.67 1665.91 2977.3 1667.6 2974.31 1667.6H2958.71C2956 1667.6 2955.53 1666.57 2955.53 1664.23V1555.49C2955.53 1550.26 2956.75 1549.6 2965.81 1548.39C2968.89 1548.01 2977.77 1547.36 2986.92 1547.36C3023.45 1547.36 3032.04 1564.18 3032.04 1580.9C3032.04 1600.05 3017.28 1608.37 3005.79 1612.76L3037.09 1662.08H3037ZM2977.67 1606.59H2983.18C3004.11 1606.59 3009.16 1593.98 3009.16 1583.33C3009.16 1561.47 2992.99 1560.63 2985.24 1560.63C2982.06 1560.63 2978.7 1561 2977.67 1561.09V1606.59ZM3169.84 1613.32H3203.38C3206.09 1613.32 3207.12 1612.94 3207.12 1609.95V1601.55C3207.12 1598.74 3205.9 1598.56 3203.57 1598.56H3169.94V1563.8H3210.39C3213.38 1563.8 3213.94 1562.49 3213.94 1560.63V1551.56C3213.94 1548.85 3212.07 1548.85 3210.2 1548.85H3151.25C3147.61 1548.85 3147.05 1550.54 3147.05 1553.53V1664.33C3147.05 1667.03 3148.17 1667.69 3150.79 1667.69H3209.83C3213.85 1667.69 3213.85 1666.01 3213.85 1663.76V1655.73C3213.85 1652.65 3212.54 1652.37 3209.83 1652.37H3169.94V1613.32H3169.84ZM1012.33 1975.61L1054.47 1846.22H1081.37L1123.51 1975.61H1099.4L1089.31 1940.58H1045.78L1035.69 1975.61H1012.33ZM1055.68 1906.76L1051.1 1922.55H1084.18L1079.6 1906.76C1077.45 1899.94 1075.49 1892.84 1073.53 1885.55C1071.56 1878.26 1069.7 1871.07 1067.92 1863.97H1067.17C1065.49 1871.26 1063.62 1878.45 1061.75 1885.64C1059.89 1892.84 1057.83 1899.84 1055.68 1906.76ZM1235.33 1977.95C1223.75 1977.95 1213.29 1975.33 1204.04 1970.19C1194.79 1965.05 1187.6 1957.49 1182.27 1947.58C1177.04 1937.59 1174.33 1925.54 1174.33 1911.24C1174.33 1896.95 1177.04 1884.99 1182.46 1874.9C1187.88 1864.81 1195.16 1857.06 1204.41 1851.73C1213.66 1846.41 1224.03 1843.7 1235.52 1843.7C1244.77 1843.7 1252.62 1845.38 1258.97 1848.74C1265.32 1852.11 1270.65 1855.94 1274.67 1860.14L1262.43 1874.99C1259.16 1871.82 1255.42 1869.2 1251.4 1866.96C1247.39 1864.72 1242.34 1863.69 1236.27 1863.69C1224.78 1863.69 1215.53 1867.89 1208.43 1876.21C1201.42 1884.62 1197.87 1896.01 1197.87 1910.59C1197.87 1925.16 1201.24 1936.93 1207.96 1945.34C1214.69 1953.75 1224.5 1957.86 1237.48 1957.86C1241.13 1957.86 1244.68 1957.39 1247.95 1956.37C1251.22 1955.34 1253.93 1953.94 1256.07 1952.07V1924.13H1231.5V1905.36H1276.63V1962.34C1272.24 1966.74 1266.54 1970.38 1259.34 1973.37C1252.15 1976.36 1244.12 1977.85 1235.33 1977.85V1977.95ZM1305.96 1975.61V1846.22H1383.97V1865.65H1328.94V1898.72H1375.47V1918.16H1328.94V1956.37H1385.93V1975.8H1305.96V1975.61ZM1454.04 1975.61V1846.22H1477.02V1898.26H1529.43V1846.22H1552.41V1975.61H1529.43V1918.25H1477.02V1975.61H1454.04ZM1625 1977.95C1616.03 1977.95 1607.91 1975.89 1600.62 1971.87C1593.33 1967.86 1587.63 1962.06 1583.43 1954.5C1579.22 1946.93 1577.08 1937.77 1577.08 1927.12C1577.08 1916.47 1579.22 1907.51 1583.52 1899.84C1587.82 1892.18 1593.42 1886.3 1600.24 1882.19C1607.06 1878.08 1614.26 1876.02 1621.83 1876.02C1630.7 1876.02 1638.08 1877.98 1643.97 1881.81C1649.95 1885.74 1654.43 1891.16 1657.42 1898.07C1660.41 1904.98 1662 1913.02 1662 1922.08C1662 1926.84 1661.62 1930.49 1660.97 1933.2H1599.22C1600.24 1941.79 1603.42 1948.42 1608.56 1953.19C1613.7 1957.95 1620.14 1960.29 1627.99 1960.29C1632.2 1960.29 1636.12 1959.64 1639.76 1958.42C1643.41 1957.21 1646.96 1955.43 1650.51 1953.19L1658.26 1967.39C1653.68 1970.47 1648.54 1972.9 1642.85 1974.96C1637.15 1977.01 1631.26 1977.95 1625 1977.95ZM1599.12 1917.78H1642.28C1642.28 1910.31 1640.6 1904.33 1637.33 1900.03C1634.06 1895.73 1629.11 1893.59 1622.48 1893.59C1616.78 1893.59 1611.74 1895.64 1607.34 1899.84C1602.95 1903.96 1600.15 1909.93 1599.12 1917.78ZM1706.19 1977.95C1697.78 1977.95 1690.86 1975.33 1685.54 1970.01C1680.21 1964.77 1677.51 1957.86 1677.51 1949.45C1677.51 1938.99 1682.08 1930.95 1691.15 1925.26C1700.21 1919.56 1714.78 1915.63 1734.68 1913.48C1734.59 1908.35 1733.19 1903.86 1730.66 1900.12C1728.14 1896.39 1723.47 1894.52 1716.93 1894.52C1712.17 1894.52 1707.49 1895.45 1703.01 1897.32C1698.43 1899.19 1694.04 1901.43 1689.65 1904.05L1681.34 1888.82C1686.75 1885.36 1692.83 1882.47 1699.65 1879.95C1706.47 1877.42 1713.66 1876.21 1721.32 1876.21C1733.47 1876.21 1742.53 1879.76 1748.51 1886.95C1754.49 1894.15 1757.48 1904.52 1757.48 1918.16V1975.7H1738.7L1737.11 1965.05H1736.36C1731.97 1968.79 1727.39 1971.87 1722.44 1974.4C1717.49 1976.92 1712.07 1978.13 1706.28 1978.13L1706.19 1977.95ZM1713.47 1960.2C1717.4 1960.2 1721.04 1959.26 1724.22 1957.3C1727.49 1955.43 1730.94 1952.82 1734.59 1949.45V1927.68C1721.41 1929.37 1712.26 1931.98 1707.12 1935.35C1701.98 1938.71 1699.37 1942.82 1699.37 1947.68C1699.37 1952.07 1700.67 1955.15 1703.29 1957.21C1705.91 1959.17 1709.27 1960.2 1713.38 1960.2H1713.47ZM1806.06 1977.95C1798.02 1977.95 1792.32 1975.52 1788.96 1970.66C1785.6 1965.8 1783.91 1959.07 1783.91 1950.67V1835.85H1806.71V1951.79C1806.71 1954.59 1807.27 1956.46 1808.3 1957.58C1809.33 1958.7 1810.45 1959.26 1811.66 1959.26C1812.22 1959.26 1812.69 1959.26 1813.16 1959.17C1813.62 1959.17 1814.28 1958.98 1815.21 1958.89L1818.2 1975.89C1816.89 1976.45 1815.21 1976.92 1813.16 1977.29C1811.1 1977.67 1808.76 1977.85 1806.15 1977.85L1806.06 1977.95ZM1870.42 1977.95C1859.21 1977.95 1851.27 1974.68 1846.6 1968.14C1841.93 1961.6 1839.59 1953.1 1839.59 1942.73V1896.39H1825.77V1879.38L1840.81 1878.36L1843.61 1851.83H1862.58V1878.36H1887.33V1896.39H1862.58V1942.73C1862.58 1954.03 1867.15 1959.73 1876.22 1959.73C1877.9 1959.73 1879.67 1959.54 1881.54 1959.07C1883.41 1958.61 1885 1958.14 1886.31 1957.58L1890.23 1974.4C1887.61 1975.33 1884.62 1976.17 1881.26 1976.83C1877.9 1977.57 1874.25 1977.95 1870.52 1977.95H1870.42ZM1907.42 1975.61V1835.94H1930.21V1871.91L1929.47 1890.69C1933.58 1886.86 1938.06 1883.5 1943.11 1880.51C1948.15 1877.52 1953.94 1876.02 1960.48 1876.02C1970.95 1876.02 1978.51 1879.38 1983.28 1886.11C1988.04 1892.84 1990.38 1902.37 1990.38 1914.61V1975.52H1967.58V1917.5C1967.58 1909.47 1966.37 1903.77 1964.03 1900.5C1961.7 1897.23 1957.77 1895.55 1952.36 1895.55C1948.15 1895.55 1944.41 1896.57 1941.14 1898.63C1937.88 1900.69 1934.23 1903.67 1930.21 1907.6V1975.52H1907.42V1975.61ZM2072.22 1977.95C2061.38 1977.95 2051.57 1975.33 2042.7 1970.19C2033.82 1965.05 2026.81 1957.49 2021.68 1947.58C2016.44 1937.59 2013.83 1925.54 2013.83 1911.24C2013.83 1896.95 2016.54 1884.99 2021.86 1874.9C2027.19 1864.81 2034.38 1857.06 2043.35 1851.73C2052.32 1846.41 2062.22 1843.7 2073.06 1843.7C2081.28 1843.7 2088.47 1845.38 2094.83 1848.65C2101.18 1851.92 2106.41 1855.75 2110.43 1860.14L2098.19 1874.99C2094.92 1871.54 2091.18 1868.83 2087.17 1866.77C2083.15 1864.72 2078.57 1863.69 2073.62 1863.69C2066.61 1863.69 2060.35 1865.56 2054.93 1869.3C2049.52 1873.03 2045.22 1878.45 2042.04 1885.46C2038.96 1892.46 2037.37 1900.87 2037.37 1910.59C2037.37 1925.35 2040.64 1936.93 2047.09 1945.34C2053.53 1953.75 2062.22 1957.86 2072.96 1957.86C2078.76 1957.86 2083.9 1956.65 2088.38 1954.22C2092.86 1951.79 2096.97 1948.61 2100.62 1944.59L2112.86 1959.07C2107.62 1965.15 2101.55 1969.82 2094.73 1972.99C2087.91 1976.26 2080.35 1977.85 2072.03 1977.85L2072.22 1977.95ZM2157.89 1977.95C2149.48 1977.95 2142.56 1975.33 2137.24 1970.01C2131.91 1964.77 2129.21 1957.86 2129.21 1949.45C2129.21 1938.99 2133.78 1930.95 2142.84 1925.26C2151.91 1919.56 2166.48 1915.63 2186.38 1913.48C2186.29 1908.35 2184.89 1903.86 2182.36 1900.12C2179.84 1896.39 2175.17 1894.52 2168.63 1894.52C2163.87 1894.52 2159.19 1895.45 2154.71 1897.32C2150.13 1899.19 2145.74 1901.43 2141.35 1904.05L2133.04 1888.82C2138.45 1885.36 2144.53 1882.47 2151.35 1879.95C2158.17 1877.42 2165.36 1876.21 2173.02 1876.21C2185.17 1876.21 2194.23 1879.76 2200.21 1886.95C2206.19 1894.15 2209.18 1904.52 2209.18 1918.16V1975.7H2190.4L2188.81 1965.05H2188.06C2183.67 1968.79 2179.09 1971.87 2174.14 1974.4C2169.19 1976.92 2163.77 1978.13 2157.98 1978.13L2157.89 1977.95ZM2165.17 1960.2C2169.1 1960.2 2172.74 1959.26 2175.92 1957.3C2179.19 1955.43 2182.64 1952.82 2186.29 1949.45V1927.68C2173.11 1929.37 2163.96 1931.98 2158.82 1935.35C2153.68 1938.71 2151.07 1942.82 2151.07 1947.68C2151.07 1952.07 2152.37 1955.15 2154.99 1957.21C2157.61 1959.17 2160.97 1960.2 2165.08 1960.2H2165.17ZM2235.8 1975.61V1878.45H2254.58L2256.17 1895.64H2256.91C2260.37 1889.29 2264.48 1884.43 2269.34 1881.07C2274.2 1877.7 2279.24 1876.02 2284.38 1876.02C2288.96 1876.02 2292.7 1876.68 2295.5 1877.98L2291.57 1897.79C2289.89 1897.23 2288.3 1896.85 2286.81 1896.57C2285.32 1896.29 2283.54 1896.2 2281.48 1896.2C2277.65 1896.2 2273.64 1897.7 2269.43 1900.69C2265.23 1903.67 2261.59 1908.81 2258.5 1916.19V1975.52H2235.71L2235.8 1975.61ZM2351.08 1977.95C2342.12 1977.95 2333.99 1975.89 2326.7 1971.87C2319.41 1967.86 2313.72 1962.06 2309.51 1954.5C2305.31 1946.93 2303.16 1937.77 2303.16 1927.12C2303.16 1916.47 2305.31 1907.51 2309.6 1899.84C2313.9 1892.18 2319.51 1886.3 2326.33 1882.19C2333.15 1878.08 2340.34 1876.02 2347.91 1876.02C2356.78 1876.02 2364.16 1877.98 2370.05 1881.81C2376.03 1885.74 2380.51 1891.16 2383.5 1898.07C2386.49 1904.98 2388.08 1913.02 2388.08 1922.08C2388.08 1926.84 2387.71 1930.49 2387.05 1933.2H2325.3C2326.33 1941.79 2329.5 1948.42 2334.64 1953.19C2339.78 1957.95 2346.23 1960.29 2354.07 1960.29C2358.28 1960.29 2362.2 1959.64 2365.85 1958.42C2369.49 1957.21 2373.04 1955.43 2376.59 1953.19L2384.34 1967.39C2379.77 1970.47 2374.63 1972.9 2368.93 1974.96C2363.23 1977.01 2357.34 1977.95 2351.08 1977.95ZM2325.11 1917.78H2368.27C2368.27 1910.31 2366.59 1904.33 2363.32 1900.03C2360.05 1895.73 2355.1 1893.59 2348.47 1893.59C2342.77 1893.59 2337.73 1895.64 2333.33 1899.84C2328.94 1903.96 2326.14 1909.93 2325.11 1917.78ZM2491.97 1977.95C2483.09 1977.95 2475.15 1975.89 2468.14 1971.87C2461.04 1967.86 2455.44 1962.06 2451.33 1954.5C2447.22 1946.93 2445.07 1937.77 2445.07 1927.12C2445.07 1916.47 2447.31 1907.13 2451.79 1899.47C2456.28 1891.9 2462.26 1886.11 2469.73 1882.09C2477.21 1878.08 2485.24 1876.02 2493.74 1876.02C2499.91 1876.02 2505.33 1877.05 2510 1879.2C2514.67 1881.35 2518.69 1883.87 2522.24 1886.95L2511.12 1901.81C2508.6 1899.56 2506.07 1897.79 2503.36 1896.57C2500.75 1895.36 2497.85 1894.71 2494.86 1894.71C2487.11 1894.71 2480.76 1897.7 2475.8 1903.58C2470.85 1909.47 2468.42 1917.41 2468.42 1927.12C2468.42 1936.84 2470.85 1944.5 2475.62 1950.48C2480.48 1956.46 2486.64 1959.35 2494.3 1959.35C2498.13 1959.35 2501.68 1958.51 2505.05 1956.93C2508.41 1955.34 2511.49 1953.38 2514.29 1951.13L2523.64 1966.17C2519.15 1970.1 2514.11 1973.09 2508.6 1975.05C2503.08 1977.01 2497.48 1978.04 2491.97 1978.04V1977.95ZM2579.88 1977.95C2571.84 1977.95 2564.28 1975.89 2557.27 1971.87C2550.26 1967.86 2544.56 1962.06 2540.27 1954.5C2535.97 1946.93 2533.73 1937.77 2533.73 1927.12C2533.73 1916.47 2535.88 1907.13 2540.27 1899.47C2544.66 1891.9 2550.26 1886.11 2557.27 1882.09C2564.28 1878.08 2571.75 1876.02 2579.88 1876.02C2588.01 1876.02 2595.67 1878.08 2602.67 1882.09C2609.68 1886.11 2615.38 1891.9 2619.68 1899.47C2624.07 1907.04 2626.22 1916.29 2626.22 1927.12C2626.22 1937.96 2624.07 1946.93 2619.68 1954.5C2615.28 1962.06 2609.68 1967.86 2602.67 1971.87C2595.67 1975.89 2588.1 1977.95 2579.88 1977.95ZM2579.88 1959.35C2586.98 1959.35 2592.58 1956.37 2596.69 1950.48C2600.8 1944.59 2602.86 1936.75 2602.86 1927.12C2602.86 1917.5 2600.8 1909.47 2596.69 1903.58C2592.58 1897.6 2586.98 1894.71 2579.88 1894.71C2572.78 1894.71 2567.17 1897.7 2563.15 1903.58C2559.14 1909.47 2557.08 1917.41 2557.08 1927.12C2557.08 1936.84 2559.04 1944.5 2563.15 1950.48C2567.17 1956.46 2572.78 1959.35 2579.88 1959.35ZM2648.26 1975.61V1878.45H2667.04L2668.63 1891.72H2669.38C2673.49 1887.33 2677.88 1883.68 2682.74 1880.6C2687.59 1877.52 2693.01 1876.02 2699.09 1876.02C2706.19 1876.02 2711.88 1877.61 2716.18 1880.69C2720.48 1883.78 2723.75 1888.07 2725.99 1893.49C2730.57 1888.45 2735.43 1884.34 2740.57 1881.07C2745.61 1877.8 2751.22 1876.12 2757.29 1876.12C2767.56 1876.12 2775.13 1879.48 2780.08 1886.2C2784.94 1892.93 2787.37 1902.46 2787.37 1914.7V1975.61H2764.39V1917.59C2764.39 1909.56 2763.17 1903.86 2760.74 1900.59C2758.32 1897.32 2754.58 1895.64 2749.53 1895.64C2743.46 1895.64 2736.64 1899.66 2729.17 1907.69V1975.61H2706.37V1917.59C2706.37 1909.56 2705.16 1903.86 2702.73 1900.59C2700.3 1897.32 2696.47 1895.64 2691.33 1895.64C2685.26 1895.64 2678.44 1899.66 2670.96 1907.69V1975.61H2648.17H2648.26ZM2814.37 2014.01V1878.45H2833.15L2834.74 1888.73H2835.48C2839.59 1885.27 2844.17 1882.37 2849.22 1879.85C2854.26 1877.33 2859.49 1876.12 2864.72 1876.12C2876.87 1876.12 2886.3 1880.6 2892.94 1889.57C2899.57 1898.54 2902.93 1910.59 2902.93 1925.54C2902.93 1936.65 2900.97 1946.09 2897.05 1953.94C2893.12 1961.78 2887.99 1967.76 2881.73 1971.87C2875.47 1975.98 2868.65 1978.04 2861.45 1978.04C2857.25 1978.04 2853.05 1977.11 2848.75 1975.14C2844.54 1973.18 2840.43 1970.66 2836.51 1967.3L2837.07 1983.55V2014.01H2814.28H2814.37ZM2856.69 1959.17C2863.14 1959.17 2868.55 1956.37 2872.95 1950.67C2877.34 1944.97 2879.48 1936.65 2879.48 1925.72C2879.48 1916.01 2877.8 1908.35 2874.53 1902.93C2871.26 1897.51 2865.94 1894.8 2858.46 1894.8C2851.65 1894.8 2844.45 1898.44 2837.07 1905.73V1951.04C2840.62 1953.94 2844.08 1955.99 2847.35 1957.3C2850.62 1958.51 2853.79 1959.17 2856.69 1959.17ZM2948.24 1977.95C2939.84 1977.95 2932.92 1975.33 2927.6 1970.01C2922.27 1964.77 2919.56 1957.86 2919.56 1949.45C2919.56 1938.99 2924.14 1930.95 2933.2 1925.26C2942.27 1919.56 2956.84 1915.63 2976.74 1913.48C2976.64 1908.35 2975.24 1903.86 2972.72 1900.12C2970.2 1896.39 2965.53 1894.52 2958.99 1894.52C2954.22 1894.52 2949.55 1895.45 2945.07 1897.32C2940.49 1899.19 2936.1 1901.43 2931.71 1904.05L2923.39 1888.82C2928.81 1885.36 2934.88 1882.47 2941.7 1879.95C2948.52 1877.42 2955.72 1876.21 2963.38 1876.21C2975.52 1876.21 2984.59 1879.76 2990.56 1886.95C2996.54 1894.15 2999.53 1904.52 2999.53 1918.16V1975.7H2980.76L2979.17 1965.05H2978.42C2974.03 1968.79 2969.45 1971.87 2964.5 1974.4C2959.55 1976.92 2954.13 1978.13 2948.34 1978.13L2948.24 1977.95ZM2955.53 1960.2C2959.45 1960.2 2963.1 1959.26 2966.28 1957.3C2969.54 1955.43 2973 1952.82 2976.64 1949.45V1927.68C2963.47 1929.37 2954.32 1931.98 2949.18 1935.35C2944.04 1938.71 2941.42 1942.82 2941.42 1947.68C2941.42 1952.07 2942.73 1955.15 2945.35 1957.21C2947.96 1959.17 2951.33 1960.2 2955.44 1960.2H2955.53ZM3026.16 1975.61V1878.45H3044.94L3046.53 1891.53H3047.27C3051.66 1887.33 3056.33 1883.68 3061.57 1880.6C3066.8 1877.52 3072.59 1876.02 3079.13 1876.02C3089.59 1876.02 3097.16 1879.38 3101.93 1886.11C3106.69 1892.84 3109.03 1902.37 3109.03 1914.61V1975.52H3086.23V1917.5C3086.23 1909.47 3085.02 1903.77 3082.68 1900.5C3080.34 1897.23 3076.42 1895.55 3071 1895.55C3066.8 1895.55 3063.06 1896.57 3059.79 1898.63C3056.52 1900.69 3052.88 1903.67 3048.86 1907.6V1975.52H3026.07L3026.16 1975.61ZM3140.23 2015.6C3137.61 2015.6 3135.28 2015.41 3133.32 2015.04C3131.35 2014.66 3129.39 2014.19 3127.62 2013.63L3131.73 1995.79C3132.66 1996.07 3133.78 1996.35 3135 1996.72C3136.21 1997.1 3137.43 1997.19 3138.64 1997.19C3143.78 1997.19 3147.89 1995.6 3150.97 1992.52C3154.05 1989.44 3156.39 1985.42 3157.98 1980.56L3159.75 1974.4L3121.54 1878.45H3144.71L3161.53 1926.1C3162.93 1930.3 3164.43 1934.78 3165.83 1939.46C3167.23 1944.13 3168.63 1948.8 3170.12 1953.38H3170.87C3172.09 1948.89 3173.3 1944.31 3174.51 1939.64C3175.73 1934.97 3176.94 1930.49 3178.16 1926.1L3192.83 1878.45H3214.78L3179.56 1980C3175.45 1990.93 3170.5 1999.62 3164.71 2006.07C3158.91 2012.42 3150.69 2015.69 3140.14 2015.69L3140.23 2015.6Z" fill="black"/>
</g>
<defs>
<clipPath id="clip0_4663_1537">
<rect width="3885.93" height="2645.83" fill="white"/>
</clipPath>
</defs>
</svg>
