<svg width="2655" height="1001" viewBox="0 0 2655 1001" fill="none" xmlns="http://www.w3.org/2000/svg">
<g clip-path="url(#clip0_12_67)">
<path d="M1724.98 993.945C1724.98 996.621 1724.57 997.856 1721.48 997.856H1706.24C1702.95 997.856 1702.12 997.238 1702.12 993.739V894.13H1676.59C1674.74 894.13 1673.09 894.13 1673.09 890.426V882.605C1673.09 880.136 1674.12 879.312 1676.59 879.312H1750.51C1752.98 879.312 1754.22 879.724 1754.22 882.605V890.838C1754.22 894.13 1752.57 894.336 1750.51 894.336H1724.98V993.945Z" fill="black"/>
<path d="M2493.37 982.419H2533.11C2535.79 982.419 2537.23 982.831 2537.23 985.712V993.738C2537.23 996.002 2537.23 997.648 2533.11 997.648H2474.23C2471.75 997.648 2470.52 997.031 2470.52 994.356V883.839C2470.52 880.752 2470.93 879.105 2474.64 879.105H2533.52C2535.38 879.105 2537.23 879.105 2537.23 881.781V890.836C2537.23 892.689 2536.82 893.923 2533.73 893.923H2493.37V928.498H2526.93C2529.2 928.498 2530.43 928.704 2530.43 931.585V940.023C2530.43 943.11 2529.41 943.316 2526.73 943.316H2493.37V982.419Z" fill="black"/>
<path d="M2105.68 960.604L2093.73 994.561C2093.12 996.208 2092.91 997.854 2089.62 997.854H2078.29C2076.85 997.854 2075 997.648 2075 995.59C2075 995.179 2075.41 993.944 2076.03 992.297L2117 882.398C2118.03 879.723 2118.44 879.105 2121.12 879.105H2130.8C2133.68 879.105 2134.09 879.517 2134.91 881.987L2175.47 992.709C2175.89 993.532 2176.3 994.973 2176.3 996.002C2176.3 997.237 2175.47 997.854 2173.42 997.854H2155.71C2152.83 997.854 2152.41 996.825 2151.8 995.385L2139.44 960.81H2105.68V960.604ZM2122.56 909.153L2109.79 947.844H2135.53L2122.56 909.153Z" fill="black"/>
<path d="M1973.7 882.604C1974.32 880.135 1975.14 879.311 1977.61 879.311H1989.14C1991.61 879.311 1992.43 879.929 1992.43 881.369C1992.43 882.193 1992.02 883.633 1991.82 884.662L1960.93 994.561C1960.31 996.825 1959.9 997.854 1957.23 997.854H1950.23C1947.14 997.854 1946.93 997.031 1945.9 994.15L1922.02 922.942L1899.37 994.356C1898.55 997.237 1897.93 997.648 1895.05 997.648H1889.08C1886.19 997.648 1885.16 997.237 1884.34 994.356L1852.84 884.251C1852.43 883.222 1852.43 882.604 1852.43 881.781C1852.43 880.34 1853.25 879.105 1855.72 879.105H1871.78C1873.63 879.105 1875.07 879.517 1875.9 882.604L1895.25 959.369L1918.72 882.398C1919.55 879.723 1920.17 879.105 1922.02 879.105H1926.96C1929.84 879.105 1929.84 880.958 1930.46 883.016L1954.34 959.369L1973.7 882.604Z" fill="black"/>
<path d="M1530.41 994.356C1530.41 997.031 1529.58 997.648 1526.7 997.648H1511.26C1508.58 997.648 1507.76 997.237 1507.76 994.15V883.016C1507.76 880.134 1508.38 879.105 1511.26 879.105H1568.91C1571.59 879.105 1572.62 879.105 1572.62 882.193V890.425C1572.62 893.306 1572.2 894.129 1569.12 894.129H1530.41V928.704H1562.73C1565.2 928.704 1566.23 928.704 1566.23 931.997V939.818C1566.23 942.905 1565.41 943.522 1562.53 943.522H1530.41V994.356V994.356Z" fill="black"/>
<path d="M2360.77 992.092C2361.39 993.121 2362.22 994.356 2362.22 995.179C2362.22 997.443 2359.95 997.443 2359.33 997.443H2341.83C2338.54 997.443 2337.71 997.031 2336.07 994.15L2311.15 951.137C2310.33 949.697 2308.07 946.815 2304.98 946.815C2301.48 946.815 2301.48 950.314 2301.48 951.96V993.533C2301.48 995.797 2301.07 997.649 2298.18 997.649H2282.53C2279.86 997.649 2279.24 996.62 2279.24 994.356V885.897C2279.24 880.752 2280.48 879.929 2289.54 878.9C2292.62 878.489 2301.48 877.871 2310.54 877.871C2346.98 877.871 2355.63 894.747 2355.63 911.211C2355.63 930.351 2340.8 938.583 2329.48 942.905L2360.77 992.092ZM2301.68 936.731H2307.24C2328.04 936.731 2333.18 924.177 2333.18 913.475C2333.18 891.66 2317.12 890.837 2309.3 890.837C2306.01 890.837 2302.71 891.248 2301.68 891.248V936.731Z" fill="black"/>
<path d="M1341.6 1000.32C1333.78 1000.32 1325.95 998.678 1318.95 995.385C1296.92 985.095 1288.07 961.633 1288.07 938.583C1288.07 905.86 1306.6 876.225 1342.22 876.225C1377.43 876.225 1395.34 906.478 1395.34 938.583C1395.34 970.688 1376.4 1000.32 1341.6 1000.32ZM1363.63 903.391C1358.48 895.57 1350.87 890.837 1341.4 890.837C1335.22 890.837 1329.87 893.101 1325.13 897.011C1314.01 906.066 1311.95 923.559 1311.95 936.731C1311.95 947.844 1313.39 960.81 1319.16 970.483C1324.1 978.715 1332.13 984.477 1342.01 984.477C1347.98 984.477 1353.34 982.213 1358.07 978.509C1369.4 969.248 1371.66 951.549 1371.66 937.966C1371.66 926.235 1370.22 913.269 1363.63 903.391Z" fill="black"/>
<path d="M1154.86 929.323C1161.24 932.41 1182.04 941.877 1182.04 965.75C1182.04 989.006 1162.89 1000.32 1143.33 1000.32C1133.45 1000.32 1119.24 997.65 1110.18 986.125C1105.24 980.156 1104.83 975.011 1104.83 972.747C1104.83 967.191 1108.74 962.457 1114.71 962.457C1121.51 962.457 1123.77 966.985 1126.65 972.336C1128.71 976.246 1133.45 985.713 1144.36 985.713C1153.83 985.713 1160.42 979.539 1160.42 969.866C1160.42 956.489 1149.1 952.167 1138.18 946.404L1129.12 941.465C1121.51 937.349 1106.06 928.294 1106.06 908.948C1106.06 886.721 1123.15 876.02 1142.3 876.02C1156.92 876.02 1168.24 882.194 1173.6 888.779C1176.89 893.101 1177.51 896.806 1177.51 898.452C1177.51 903.803 1173.39 908.125 1167.83 908.125C1162.27 908.125 1160.01 905.038 1157.33 900.716C1155.07 897.012 1150.54 889.397 1141.48 889.397C1132.83 889.397 1126.45 895.571 1126.45 904.009C1126.45 916.151 1136.74 920.679 1146.21 925.207L1154.86 929.323Z" fill="black"/>
<path d="M1859.63 779.085C1859.63 794.109 1855.31 794.932 1842.13 794.932H1794.57C1781.39 794.932 1781.39 791.433 1781.39 779.085V356.57C1781.39 345.251 1781.39 339.9 1796.42 339.9H1842.13C1856.13 339.9 1859.63 342.576 1859.63 356.57V779.085Z" fill="black"/>
<path d="M2655 364.803C2655 384.765 2639.15 400.612 2619.59 400.612C2599.62 400.612 2583.76 384.56 2583.76 364.597C2583.76 345.045 2599.82 329.404 2620.2 329.404C2639.35 329.404 2655 345.457 2655 364.803ZM2589.73 364.803C2589.73 381.473 2603.12 394.85 2619.38 394.85C2635.85 394.85 2649.24 381.267 2649.24 364.597C2649.24 348.338 2635.65 334.961 2619.17 334.961C2603.12 334.961 2589.73 348.75 2589.73 364.803ZM2606.62 343.811H2616.91C2626.59 343.811 2633.18 346.074 2633.18 354.307C2633.18 359.04 2629.88 362.539 2623.91 363.568V363.979C2627.41 365.008 2628.85 367.478 2630.09 370.153L2636.47 383.736H2628.44L2622.88 371.594C2621.23 367.89 2619.38 366.243 2614.44 366.243H2613.41V383.736H2606.62V343.811ZM2613.62 360.686H2615.67C2622.06 360.686 2625.76 359.04 2625.76 355.13C2625.76 350.396 2622.06 349.779 2615.67 349.779H2613.62V360.686Z" fill="black"/>
<path d="M828.104 329.404C828.104 329.404 563.325 329.404 559.001 329.404C540.265 329.404 521.529 329.61 502.998 333.52C473.144 339.9 445.966 353.689 421.876 371.8C417.552 375.093 410.346 380.855 409.316 381.884C414.052 378.18 418.993 374.681 424.347 371.594C446.995 357.805 473.555 349.779 501.969 349.779C584.326 349.779 651.036 416.459 651.036 498.781C651.036 542.823 631.888 582.337 601.621 609.709C598.945 612.179 595.856 614.854 592.356 617.735C588.856 620.617 585.15 623.498 581.444 626.173C541.5 654.986 493.527 667.54 444.318 668.569C442.054 668.569 359.284 668.569 334.783 668.569V822.922C334.783 947.844 384.403 997.649 509.587 997.649H828.516C953.494 997.649 1003.32 948.05 1003.32 822.922V503.926C1002.91 379.003 953.082 329.404 828.104 329.404Z" fill="#D23A38"/>
<path d="M1963.4 425.104C1963.4 395.262 1964.23 380.239 1985.43 364.392C2014.46 343.194 2074.17 329.199 2125.24 329.199C2214.8 329.199 2243.83 365.215 2257.01 381.885C2276.36 361.716 2307.04 329.199 2396.81 329.199C2540.11 329.199 2539.29 424.075 2539.29 470.586V778.263C2539.29 790.611 2535.79 794.11 2523.43 794.933H2476.9C2465.58 794.933 2461.05 793.081 2461.05 778.263V491.784C2460.22 445.273 2459.19 378.386 2375.81 378.386C2345.13 378.386 2325.78 389.706 2315.07 398.555C2290.57 420.576 2290.57 443.42 2290.57 470.586V778.263C2290.57 790.611 2288.71 794.933 2275.54 794.933H2229.83C2217.48 794.933 2212.33 794.11 2212.33 779.086V483.964C2212.33 452.27 2211.5 375.917 2127.91 375.917C2043.5 375.917 2041.85 440.951 2041.85 470.792V778.263C2041.85 792.258 2038.35 794.933 2024.35 794.933H1979.46C1968.14 794.933 1963.61 792.258 1963.61 778.263V425.104H1963.4Z" fill="black"/>
<path d="M1102.97 425.104C1102.97 395.262 1103.8 380.239 1125 364.392C1154.03 343.194 1213.74 329.199 1264.8 329.199C1354.57 329.199 1383.4 365.215 1396.58 381.885C1415.93 361.716 1446.61 329.199 1536.38 329.199C1679.68 329.199 1678.86 424.075 1678.86 470.586V778.263C1678.86 790.611 1675.36 794.11 1663 794.933H1616.27C1604.74 794.933 1600.41 793.081 1600.41 778.263V491.784C1599.59 445.273 1598.76 378.386 1515.17 378.386C1484.49 378.386 1465.14 389.706 1454.43 398.555C1429.73 420.576 1429.73 443.42 1429.73 470.586V778.263C1429.73 790.611 1428.08 794.933 1414.7 794.933H1369.19C1356.84 794.933 1351.69 794.11 1351.69 779.086V483.964C1351.69 452.27 1350.87 375.917 1267.28 375.917C1182.86 375.917 1181.21 440.951 1181.21 470.792V778.263C1181.21 792.258 1177.71 794.933 1163.71 794.933H1118.83C1107.3 794.933 1102.97 792.258 1102.97 778.263V425.104Z" fill="black"/>
<path d="M493.733 0.324219H174.804C49.6204 0.324219 0 49.9229 0 175.052V493.841C0 618.97 49.6204 668.569 174.804 668.569H334.371C334.989 668.569 343.019 668.569 354.549 668.569C370.197 668.569 392.639 668.569 412.405 668.569C418.17 668.569 423.729 668.569 429.494 668.363C429.906 668.363 430.318 668.363 430.73 668.363C435.053 668.363 439.377 668.363 443.701 668.363C492.91 667.334 540.883 654.78 580.826 625.967C585.15 622.675 589.268 619.382 593.386 615.883C592.974 616.295 592.562 616.5 592.15 616.912C591.945 617.118 591.739 617.324 591.533 617.324C591.327 617.529 591.121 617.735 590.915 617.941C590.709 618.147 590.503 618.353 590.297 618.353C590.092 618.558 589.886 618.764 589.68 618.764C589.474 618.97 589.268 619.176 589.062 619.176C588.856 619.382 588.65 619.587 588.444 619.587C588.238 619.793 588.033 619.999 587.827 619.999C587.621 620.205 587.415 620.411 587.209 620.411C587.003 620.616 586.797 620.617 586.591 620.822C586.18 621.028 585.974 621.234 585.562 621.44C585.356 621.646 584.944 621.851 584.738 622.057C584.532 622.263 584.121 622.469 583.915 622.675C583.709 622.88 583.503 622.88 583.297 623.086C583.091 623.292 582.885 623.498 582.473 623.498C582.268 623.704 582.062 623.704 581.856 623.909C581.65 624.115 581.444 624.115 581.032 624.321C580.826 624.527 580.62 624.527 580.414 624.733C580.209 624.938 580.003 624.938 579.591 625.144C579.385 625.35 579.179 625.35 578.973 625.556C578.767 625.762 578.356 625.967 578.15 626.173C577.944 626.379 577.532 626.585 577.326 626.791C576.914 626.996 576.708 627.202 576.297 627.408C576.091 627.614 575.885 627.614 575.679 627.82C575.473 628.025 575.061 628.025 574.855 628.231C574.649 628.437 574.444 628.437 574.238 628.643C574.032 628.849 573.826 628.849 573.414 629.054C573.208 629.26 573.002 629.26 572.796 629.466C572.591 629.672 572.179 629.672 571.973 629.878C571.767 630.083 571.561 630.083 571.355 630.289C571.149 630.495 570.738 630.495 570.532 630.701C570.326 630.907 570.12 630.907 569.914 631.112C569.502 631.318 568.884 631.524 568.473 631.73C568.267 631.73 568.061 631.936 567.855 631.936C567.649 632.142 567.237 632.142 567.031 632.347C566.825 632.553 566.62 632.553 566.414 632.759C566.208 632.965 565.796 632.965 565.59 633.171C565.384 633.376 565.178 633.376 564.972 633.582C564.767 633.788 564.355 633.788 564.149 633.994C563.943 634.2 563.737 634.2 563.531 634.405C563.325 634.611 562.914 634.611 562.708 634.817C562.502 634.817 562.296 635.023 562.09 635.023C561.678 635.229 561.266 635.434 560.649 635.64C560.443 635.64 560.237 635.846 560.031 635.846C559.619 636.052 559.413 636.052 559.002 636.258C558.796 636.258 558.59 636.463 558.384 636.463C558.178 636.669 557.766 636.669 557.56 636.875C557.354 636.875 557.149 637.081 556.943 637.081C556.737 637.287 556.325 637.287 556.119 637.492C555.913 637.492 555.707 637.698 555.501 637.698C555.09 637.904 554.884 637.904 554.472 638.11C554.266 638.11 554.06 638.316 553.854 638.316C553.442 638.521 553.031 638.521 552.619 638.727C552.413 638.727 552.413 638.933 552.207 638.933C551.589 639.139 551.178 639.345 550.56 639.55C550.354 639.55 550.148 639.756 549.942 639.756C549.53 639.962 549.325 639.962 548.913 640.168C548.707 640.168 548.501 640.374 548.295 640.374C547.883 640.374 547.677 640.579 547.266 640.579C547.06 640.579 546.854 640.785 546.648 640.785C546.236 640.785 546.03 640.991 545.618 640.991C545.413 640.991 545.207 641.197 545.001 641.197C544.589 641.403 544.177 641.403 543.971 641.608C543.765 641.608 543.56 641.609 543.354 641.814C542.736 642.02 542.324 642.02 541.706 642.226C541.501 642.226 541.295 642.226 541.295 642.432C540.883 642.638 540.471 642.638 540.059 642.638C539.853 642.638 539.648 642.843 539.442 642.843C539.03 642.843 538.824 643.049 538.412 643.049C538.206 643.049 538 643.255 537.795 643.255C537.383 643.255 537.177 643.461 536.765 643.461C536.559 643.461 536.353 643.667 536.147 643.667C535.736 643.667 535.324 643.872 535.118 643.872C534.912 643.872 534.706 643.872 534.5 644.078C533.883 644.284 533.471 644.284 532.853 644.49H532.647C532.235 644.49 531.618 644.696 531.206 644.696C531 644.696 530.794 644.696 530.588 644.901C530.176 644.901 529.765 645.107 529.559 645.107C529.353 645.107 529.147 645.107 528.941 645.313C528.529 645.313 528.323 645.519 527.912 645.519C527.706 645.519 527.5 645.519 527.294 645.725C526.882 645.725 526.47 645.93 526.264 645.93C526.059 645.93 525.853 645.93 525.647 645.93C525.235 645.93 524.823 646.136 524.206 646.136C524 646.136 524 646.136 523.794 646.136C523.176 646.136 522.558 646.342 522.147 646.342C521.941 646.342 521.735 646.342 521.529 646.342C521.117 646.342 520.705 646.342 520.294 646.548C520.088 646.548 519.882 646.548 519.676 646.548C519.264 646.548 518.852 646.548 518.646 646.754C518.44 646.754 518.235 646.754 518.029 646.754C517.617 646.754 517.205 646.754 516.999 646.959C516.793 646.959 516.587 646.959 516.382 646.959C515.97 646.959 515.558 646.959 515.146 647.165C514.94 647.165 514.734 647.165 514.734 647.165C514.117 647.165 513.499 647.165 512.881 647.371C512.675 647.371 512.675 647.371 512.47 647.371C512.058 647.371 511.44 647.371 511.028 647.371C510.822 647.371 510.616 647.371 510.411 647.371C509.999 647.371 509.587 647.371 509.175 647.371C508.969 647.371 508.763 647.371 508.558 647.371C508.146 647.371 507.734 647.371 507.528 647.371C507.322 647.371 507.116 647.371 506.91 647.371C506.499 647.371 506.087 647.371 505.675 647.371C505.469 647.371 505.263 647.371 505.057 647.371C504.44 647.371 503.822 647.371 503.204 647.371C472.938 647.371 444.936 638.316 421.465 622.88C421.053 622.469 420.435 622.263 420.023 621.851C408.699 614.237 398.404 604.975 389.551 594.479C389.139 594.068 388.727 593.656 388.316 593.039C387.492 592.216 386.874 591.187 386.051 590.158C385.639 589.746 385.227 589.129 385.021 588.717C384.198 587.688 383.58 586.865 382.962 585.836C381.521 583.983 380.286 581.925 378.845 579.867C378.227 578.838 377.609 577.809 376.991 576.78C376.374 575.751 375.756 574.722 375.138 573.693C373.903 571.635 372.668 569.577 371.638 567.313C367.932 560.316 364.844 553.113 362.373 545.704C361.961 544.469 361.549 543.44 361.344 542.205C357.02 528.211 354.549 513.393 354.549 497.958C354.549 497.34 354.549 496.723 354.549 496.105C354.549 495.899 354.549 495.694 354.549 495.488C354.549 495.076 354.549 494.665 354.549 494.253C354.549 494.047 354.549 493.841 354.549 493.43C354.549 493.018 354.549 492.607 354.549 492.195C354.549 491.989 354.549 491.578 354.549 491.372C354.549 490.96 354.549 490.549 354.549 490.343C354.549 490.137 354.549 489.725 354.549 489.52C354.549 489.108 354.549 488.696 354.549 488.491C354.549 488.285 354.549 487.873 354.549 487.667C354.549 487.256 354.549 487.05 354.549 486.638C354.549 486.433 354.549 486.021 354.549 485.815C354.549 485.403 354.549 485.198 354.549 484.786C354.549 484.58 354.549 484.169 354.549 483.963C354.549 483.551 354.549 483.345 354.549 482.934C354.549 482.728 354.549 482.316 354.549 482.111C354.549 481.699 354.549 481.493 354.755 481.082C354.755 480.876 354.755 480.464 354.755 480.258C354.755 479.847 354.755 479.641 354.961 479.229C354.961 479.024 354.961 478.612 355.167 478.406C355.167 477.995 355.167 477.789 355.373 477.377C355.373 477.171 355.373 476.76 355.579 476.554C355.579 476.142 355.579 475.937 355.784 475.525C355.784 475.319 355.784 474.908 355.99 474.702C355.99 474.29 356.196 474.084 356.196 473.673C356.196 473.467 356.196 473.055 356.402 472.849C356.402 472.438 356.608 472.232 356.608 471.82C356.608 471.615 356.608 471.203 356.814 470.997C356.814 470.586 357.02 470.38 357.02 469.968C357.02 469.762 357.226 469.351 357.226 469.145C357.226 468.733 357.432 468.528 357.432 468.116C357.432 467.91 357.637 467.499 357.637 467.293C357.637 466.881 357.843 466.675 357.843 466.264C357.843 466.058 358.049 465.852 358.049 465.441C358.049 465.029 358.255 464.823 358.255 464.412C358.255 464.206 358.461 464 358.461 463.588C358.461 463.177 358.667 462.971 358.667 462.559C358.667 462.353 358.873 462.148 358.873 461.736C358.873 461.324 359.079 460.913 359.079 460.707C359.079 460.501 359.285 460.295 359.285 460.09C359.285 459.678 359.491 459.266 359.491 459.061C359.491 458.855 359.696 458.649 359.696 458.443C359.696 458.032 359.902 457.62 360.108 457.414C360.108 457.208 360.314 457.003 360.314 456.797C360.52 456.385 360.52 455.974 360.726 455.768C360.726 455.562 360.932 455.356 360.932 455.15C361.138 454.739 361.138 454.327 361.344 454.121C361.344 453.916 361.549 453.71 361.549 453.504C361.755 453.092 361.755 452.681 361.961 452.269C361.961 452.063 362.167 451.857 362.167 451.652C362.373 451.24 362.373 450.828 362.579 450.417C362.579 450.211 362.785 450.005 362.785 449.799C362.991 449.388 362.991 448.976 363.197 448.565C363.197 448.359 363.402 448.153 363.402 447.947C363.608 447.536 363.608 447.124 363.814 446.712C363.814 446.507 364.02 446.301 364.02 446.095C364.226 445.683 364.432 445.272 364.432 444.86C364.432 444.654 364.638 444.449 364.638 444.449C364.844 444.037 365.05 443.625 365.05 443.214C365.05 443.008 365.256 443.008 365.256 442.802C365.461 442.391 365.667 441.979 365.873 441.567C365.873 441.361 366.079 441.361 366.079 441.156C366.285 440.744 366.491 440.332 366.697 439.715C366.697 439.509 366.697 439.509 366.903 439.303C367.109 438.892 367.314 438.274 367.52 437.863C367.52 437.863 367.52 437.657 367.726 437.657C367.932 437.245 368.138 436.628 368.344 436.216V436.011C368.55 435.393 368.756 434.982 369.168 434.57C369.168 434.57 369.168 434.57 369.168 434.364C376.786 418.311 387.286 403.905 400.052 391.557C407.876 383.942 419.406 374.887 423.729 371.8C448.025 353.689 475.203 339.9 504.851 333.52C523.382 329.61 542.118 329.404 560.855 329.404C563.119 329.404 583.091 329.404 592.15 329.404C593.798 329.404 645.889 329.404 670.39 329.404V175.052C668.537 49.9229 618.917 0.324219 493.733 0.324219Z" fill="#BEBEBE"/>
</g>
<defs>
<clipPath id="clip0_12_67">
<rect width="2655" height="1000" fill="white" transform="translate(0 0.324219)"/>
</clipPath>
</defs>
</svg>
