<svg width="3299" height="1000" viewBox="0 0 3299 1000" fill="none" xmlns="http://www.w3.org/2000/svg">
<g clip-path="url(#clip0_1445_3070)">
<path d="M1316.05 673.145V467.5L1289.3 464.395C1285.95 463.603 1283.21 462.365 1281.06 460.693C1278.91 459.021 1277.83 456.595 1277.83 453.409V435.973H1316.05V412.566C1316.05 398.713 1318 386.413 1321.9 375.665C1325.8 364.917 1331.37 355.841 1338.62 348.437C1345.86 341.033 1354.58 335.42 1364.77 331.598C1374.96 327.777 1386.42 325.866 1399.16 325.866C1409.99 325.866 1419.94 327.463 1429.02 330.643L1428.06 351.9C1427.74 355.722 1425.63 357.796 1421.73 358.11C1417.83 358.431 1412.61 358.588 1406.09 358.588C1398.76 358.588 1392.12 359.543 1386.15 361.454C1380.18 363.365 1375.04 366.47 1370.74 370.769C1366.44 375.068 1363.14 380.718 1360.83 387.727C1358.52 394.735 1357.37 403.415 1357.37 413.761V435.973H1427.11V466.784H1358.8V673.145H1316.05Z" fill="#0F0F0F"/>
<path d="M1561.82 427.375C1579.49 427.375 1595.41 430.322 1609.59 436.212C1623.75 442.108 1635.86 450.461 1645.89 461.29C1655.92 472.12 1663.6 485.212 1668.94 500.58C1674.27 515.948 1676.94 533.107 1676.94 552.051C1676.94 570.995 1674.27 588.355 1668.94 603.641C1663.6 618.927 1655.92 631.988 1645.89 642.811C1635.86 653.641 1623.75 661.957 1609.59 667.771C1595.41 673.578 1579.49 676.488 1561.82 676.488C1544.14 676.488 1527.94 673.578 1513.69 667.771C1499.43 661.957 1487.3 653.641 1477.27 642.811C1467.23 631.988 1459.55 618.927 1454.22 603.641C1448.88 588.355 1446.22 571.158 1446.22 552.051C1446.22 532.943 1448.88 515.948 1454.22 500.58C1459.55 485.212 1467.23 472.12 1477.27 461.29C1487.3 450.461 1499.43 442.101 1513.69 436.212C1527.94 430.322 1543.98 427.375 1561.82 427.375ZM1561.82 643.289C1585.7 643.289 1603.53 635.288 1615.32 619.285C1627.1 603.283 1632.99 580.951 1632.99 552.29C1632.99 523.629 1627.1 501.02 1615.32 484.936C1603.53 468.858 1585.7 460.813 1561.82 460.813C1549.71 460.813 1539.16 462.887 1530.17 467.023C1521.17 471.165 1513.69 477.136 1507.72 484.936C1501.75 492.742 1497.28 502.334 1494.34 513.717C1491.4 525.106 1489.92 537.959 1489.92 552.29C1489.92 580.951 1495.85 603.283 1507.72 619.285C1519.58 635.288 1537.61 643.289 1561.82 643.289Z" fill="#0F0F0F"/>
<path d="M1771.04 479.681C1778.68 463.126 1788.07 450.184 1799.22 440.869C1810.36 431.554 1823.98 426.897 1840.06 426.897C1845.15 426.897 1850.05 427.456 1854.75 428.569C1859.45 429.688 1863.63 431.435 1867.29 433.823L1864.19 465.59C1863.23 469.568 1860.84 471.561 1857.02 471.561C1854.79 471.561 1851.53 471.083 1847.23 470.128C1842.93 469.172 1838.07 468.695 1832.66 468.695C1825.02 468.695 1818.21 469.813 1812.24 472.038C1806.27 474.27 1800.93 477.576 1796.24 481.95C1791.53 486.331 1787.32 491.743 1783.58 498.192C1779.83 504.64 1776.45 512.007 1773.43 520.285V673.145H1730.67V431.196H1755.03C1759.65 431.196 1762.83 432.076 1764.59 433.823C1766.34 435.577 1767.53 438.6 1768.17 442.899L1771.04 479.681Z" fill="#0F0F0F"/>
<path d="M1904.55 673.145V431.196H1930.11C1936.15 431.196 1939.9 434.144 1941.33 440.033L1944.44 464.873C1953.35 453.886 1963.38 444.892 1974.53 437.884C1985.68 430.882 1998.57 427.375 2013.22 427.375C2029.47 427.375 2042.64 431.913 2052.75 440.989C2062.86 450.065 2070.14 462.327 2074.61 477.771C2078.11 469.015 2082.61 461.454 2088.1 455.08C2093.6 448.713 2099.76 443.459 2106.61 439.317C2113.46 435.181 2120.74 432.152 2128.47 430.241C2136.18 428.33 2144.03 427.375 2151.99 427.375C2164.73 427.375 2176.07 429.405 2186.03 433.465C2195.98 437.525 2204.42 443.459 2211.35 451.259C2218.27 459.065 2223.56 468.657 2227.23 480.04C2230.89 491.429 2232.72 504.446 2232.72 519.091V673.145H2189.97V519.091C2189.97 500.14 2185.83 485.772 2177.55 475.979C2169.26 466.187 2157.32 461.29 2141.72 461.29C2134.71 461.29 2128.06 462.522 2121.78 464.993C2115.49 467.463 2109.96 471.083 2105.18 475.86C2100.4 480.637 2096.62 486.652 2093.83 493.893C2091.04 501.14 2089.65 509.537 2089.65 519.091V673.145H2046.9V519.091C2046.9 499.663 2043 485.175 2035.2 475.621C2027.39 466.067 2016.01 461.29 2001.04 461.29C1990.53 461.29 1980.82 464.119 1971.9 469.769C1962.99 475.426 1954.78 483.107 1947.3 492.818V673.145H1904.55Z" fill="#0F0F0F"/>
<path d="M2291.24 465.351C2304.61 452.453 2319.02 442.824 2334.47 436.451C2349.91 430.084 2367.03 426.897 2385.82 426.897C2399.35 426.897 2411.38 429.128 2421.89 433.585C2432.39 438.041 2441.23 444.251 2448.4 452.214C2455.56 460.178 2460.97 469.813 2464.64 481.114C2468.3 492.422 2470.13 504.842 2470.13 518.374V673.145H2451.26C2447.12 673.145 2443.93 672.472 2441.71 671.114C2439.48 669.763 2437.72 667.098 2436.46 663.113L2431.68 640.184C2425.31 646.08 2419.1 651.29 2413.05 655.828C2407 660.366 2400.63 664.188 2393.94 667.293C2387.25 670.398 2380.13 672.786 2372.56 674.458C2365 676.13 2356.6 676.966 2347.37 676.966C2338.13 676.966 2329.13 675.652 2320.86 673.025C2312.57 670.398 2305.37 666.457 2299.24 661.202C2293.11 655.948 2288.25 649.304 2284.67 641.259C2281.09 633.22 2279.3 623.704 2279.3 612.717C2279.3 603.163 2281.92 593.968 2287.18 585.131C2292.43 576.294 2300.95 568.456 2312.73 561.605C2324.51 554.76 2339.88 549.147 2358.83 544.766C2377.78 540.392 2401.02 537.877 2428.57 537.243V518.374C2428.57 499.587 2424.51 485.376 2416.39 475.74C2408.27 466.111 2396.41 461.29 2380.8 461.29C2370.3 461.29 2361.5 462.604 2354.41 465.231C2347.32 467.859 2341.19 470.806 2336.02 474.069C2330.84 477.337 2326.39 480.278 2322.65 482.906C2318.9 485.533 2315.2 486.847 2311.54 486.847C2308.67 486.847 2306.2 486.092 2304.14 484.578C2302.06 483.063 2300.31 481.196 2298.88 478.965L2291.24 465.351ZM2428.57 564.232C2408.99 564.873 2392.31 566.426 2378.54 568.889C2364.76 571.36 2353.53 574.584 2344.86 578.563C2336.18 582.547 2329.89 587.243 2325.99 592.654C2322.09 598.072 2320.14 604.119 2320.14 610.806C2320.14 617.494 2321.17 622.673 2323.24 627.287C2325.31 631.906 2328.14 635.69 2331.72 638.632C2335.31 641.58 2339.52 643.729 2344.38 645.08C2349.23 646.438 2354.45 647.111 2360.03 647.111C2367.51 647.111 2374.36 646.356 2380.57 644.842C2386.78 643.333 2392.63 641.14 2398.12 638.273C2403.61 635.407 2408.87 631.988 2413.88 628.003C2418.9 624.025 2423.8 619.486 2428.57 614.389V564.232Z" fill="#0F0F0F"/>
<path d="M2756.27 673.145H2713.75V466.784H2589.08V612.001C2589.08 622.195 2591.54 629.757 2596.48 634.691C2601.41 639.631 2607.78 642.095 2615.59 642.095C2620.04 642.095 2623.9 641.498 2627.17 640.304C2630.43 639.109 2633.26 637.796 2635.65 636.363C2638.04 634.93 2640.07 633.616 2641.74 632.422C2643.41 631.228 2644.88 630.63 2646.16 630.63C2648.38 630.63 2650.38 631.988 2652.13 634.691L2664.55 654.992C2657.22 661.844 2648.38 667.217 2638.04 671.114C2627.69 675.018 2617.02 676.966 2606.03 676.966C2586.93 676.966 2572.24 671.636 2561.97 660.964C2551.7 650.297 2546.56 634.93 2546.56 614.867V466.784H2517.42C2514.87 466.784 2512.72 466.03 2510.97 464.515C2509.22 463 2508.35 460.656 2508.35 457.469V440.511L2548 435.256L2557.79 360.737C2558.27 358.349 2559.34 356.4 2561.01 354.886C2562.68 353.371 2564.87 352.617 2567.58 352.617H2589.08V435.973H2756.27V673.145ZM2766.78 353.572C2766.78 357.714 2765.94 361.573 2764.27 365.156C2762.6 368.739 2760.36 371.887 2757.58 374.59C2754.79 377.299 2751.57 379.449 2747.91 381.039C2744.24 382.635 2740.34 383.427 2736.2 383.427C2732.07 383.427 2728.2 382.635 2724.62 381.039C2721.04 379.449 2717.89 377.299 2715.19 374.59C2712.48 371.887 2710.33 368.739 2708.74 365.156C2707.14 361.573 2706.35 357.714 2706.35 353.572C2706.35 349.43 2707.14 345.489 2708.74 341.749C2710.33 338.009 2712.48 334.747 2715.19 331.957C2717.89 329.172 2721.04 326.985 2724.62 325.388C2728.2 323.798 2732.06 323 2736.2 323C2740.35 323 2744.24 323.798 2747.91 325.388C2751.57 326.985 2754.79 329.172 2757.58 331.957C2760.36 334.747 2762.6 338.009 2764.27 341.749C2765.94 345.495 2766.78 349.436 2766.78 353.572Z" fill="#0F0F0F"/>
<path d="M2927.99 427.375C2945.67 427.375 2961.59 430.322 2975.76 436.212C2989.93 442.108 3002.04 450.461 3012.07 461.29C3022.1 472.12 3029.78 485.212 3035.12 500.58C3040.45 515.948 3043.12 533.107 3043.12 552.051C3043.12 570.995 3040.45 588.355 3035.12 603.641C3029.78 618.927 3022.1 631.988 3012.07 642.811C3002.04 653.641 2989.94 661.957 2975.76 667.771C2961.59 673.578 2945.67 676.488 2927.99 676.488C2910.32 676.488 2894.12 673.578 2879.87 667.771C2865.62 661.957 2853.48 653.641 2843.44 642.811C2833.41 631.988 2825.73 618.927 2820.4 603.641C2815.06 588.355 2812.39 571.158 2812.39 552.051C2812.39 532.943 2815.06 515.948 2820.4 500.58C2825.73 485.212 2833.41 472.12 2843.44 461.29C2853.48 450.461 2865.61 442.101 2879.87 436.212C2894.12 430.322 2910.16 427.375 2927.99 427.375ZM2927.99 643.289C2951.88 643.289 2969.71 635.288 2981.5 619.285C2993.28 603.283 2999.17 580.951 2999.17 552.29C2999.17 523.629 2993.27 501.02 2981.5 484.936C2969.71 468.858 2951.88 460.813 2927.99 460.813C2915.9 460.813 2905.34 462.887 2896.35 467.023C2887.35 471.165 2879.87 477.136 2873.9 484.936C2867.93 492.742 2863.47 502.334 2860.52 513.717C2857.57 525.106 2856.1 537.959 2856.1 552.29C2856.1 580.951 2862.03 603.283 2873.9 619.285C2885.76 635.288 2903.79 643.289 2927.99 643.289Z" fill="#0F0F0F"/>
<path d="M3136.98 466.306C3142.23 460.417 3147.8 455.081 3153.7 450.304C3159.59 445.527 3165.84 441.429 3172.45 438.003C3179.05 434.584 3186.06 431.957 3193.46 430.121C3200.87 428.292 3208.87 427.375 3217.47 427.375C3230.68 427.375 3242.34 429.562 3252.46 433.943C3262.56 438.324 3271.01 444.534 3277.78 452.573C3284.54 460.612 3289.67 470.285 3293.18 481.592C3296.68 492.899 3298.44 505.401 3298.44 519.091V673.145H3255.68V519.091C3255.68 500.781 3251.5 486.57 3243.14 476.457C3234.78 466.35 3222.08 461.29 3205.05 461.29C3192.47 461.29 3180.72 464.314 3169.82 470.366C3158.91 476.419 3148.84 484.622 3139.6 494.967V673.145H3096.85V431.196H3122.41C3128.45 431.196 3132.2 434.144 3133.63 440.033L3136.98 466.306Z" fill="#0F0F0F"/>
<path d="M1199.87 0H0V1000H1199.87V0Z" fill="#3498DB"/>
<path d="M736.222 673.18H686.543C680.968 673.18 676.43 671.791 672.929 669.001C669.422 666.216 666.801 662.753 665.047 658.611L639.252 588.152H496.185L470.39 658.611C469.114 662.275 466.644 665.619 462.985 668.642C459.321 671.672 454.783 673.18 449.371 673.18H399.214L535.116 327.813H600.559L736.222 673.18ZM622.772 542.772L580.735 427.888C578.661 422.791 576.512 416.744 574.287 409.736C572.055 402.734 569.824 395.167 567.599 387.046C565.525 395.167 563.375 402.772 561.15 409.855C558.919 416.945 556.769 423.111 554.701 428.366L512.904 542.772H622.772Z" fill="white"/>
<path d="M373.652 673.193H315.613C304.626 673.193 296.662 668.894 291.728 660.295L219.12 549.711C216.411 545.575 213.425 542.627 210.163 540.874C206.895 539.12 202.08 538.246 195.713 538.246H168.246V673.193H103.997V327.825H209.327C232.734 327.825 252.835 330.258 269.635 335.11C286.43 339.969 300.207 346.776 310.955 355.531C321.703 364.293 329.623 374.758 334.72 386.939C339.811 399.12 342.363 412.533 342.363 427.184C342.363 438.812 340.647 449.799 337.228 460.145C333.803 470.497 328.869 479.893 322.42 488.328C315.971 496.769 308.008 504.174 298.536 510.541C289.057 516.914 278.272 521.93 266.172 525.588C270.308 527.976 274.129 530.805 277.637 534.067C281.138 537.335 284.324 541.194 287.19 545.651L373.652 673.193ZM208.372 492.15C220.471 492.15 231.018 490.641 240.019 487.612C249.013 484.588 256.417 480.409 262.231 475.072C268.039 469.742 272.382 463.413 275.248 456.084C278.114 448.762 279.547 440.723 279.547 431.961C279.547 414.444 273.771 400.993 262.231 391.597C250.685 382.2 233.048 377.505 209.327 377.505H168.246V492.15H208.372Z" fill="white"/>
<path d="M1099.18 500.069C1099.18 525.387 1094.95 548.636 1086.52 569.811C1078.08 590.993 1066.22 609.221 1050.93 624.507C1035.64 639.793 1017.25 651.659 995.758 660.094C974.262 668.535 950.377 672.753 924.104 672.753H792.502V327.385H924.104C950.377 327.385 974.262 331.647 995.758 340.163C1017.25 348.686 1035.64 360.547 1050.93 375.751C1066.22 390.962 1078.08 409.151 1086.52 430.327C1094.95 451.508 1099.18 474.752 1099.18 500.069ZM1033.26 500.069C1033.26 481.125 1030.75 464.123 1025.73 449.076C1020.72 434.029 1013.47 421.295 1004 410.861C994.519 400.434 983.055 392.432 969.604 386.857C956.147 381.288 940.981 378.498 924.104 378.498H856.989V621.641H924.104C940.981 621.641 956.147 618.856 969.604 613.281C983.055 607.712 994.519 599.711 1004 589.277C1013.47 578.85 1020.72 566.109 1025.73 551.062C1030.75 536.015 1033.26 519.019 1033.26 500.069Z" fill="white"/>
</g>
<defs>
<clipPath id="clip0_1445_3070">
<rect width="3298.44" height="1000" fill="white"/>
</clipPath>
</defs>
</svg>
