<svg width="163" height="34" viewBox="0 0 163 34" fill="none" xmlns="http://www.w3.org/2000/svg">
<path d="M12.2574 18.1626C12.2574 17.9949 12.1908 17.8341 12.0722 17.7155C11.9537 17.5969 11.7928 17.5303 11.6251 17.5303H0C0.110279 21.1225 1.35594 24.5873 3.55816 27.4274C5.76038 30.2675 8.80588 32.3368 12.2574 33.3382V18.1626Z" fill="#71CAE2"/>
<path d="M17.8945 0.0246028C15.662 -0.0956264 13.4276 0.225635 11.3194 0.969996C9.21116 1.71436 7.27042 2.8672 5.60828 4.36254C3.94614 5.85788 2.59524 7.66635 1.63289 9.68443C0.670548 11.7025 0.115663 13.8906 0 16.1234H25.8301C26.0092 16.1195 26.1834 16.1819 26.3194 16.2986C26.4553 16.4153 26.5434 16.578 26.5667 16.7557C26.5769 16.8531 26.5665 16.9515 26.5362 17.0447C26.5059 17.1378 26.4563 17.2235 26.3907 17.2963C26.3252 17.369 26.245 17.4271 26.1555 17.4669C26.066 17.5067 25.9691 17.5272 25.8712 17.5271H14.2872C14.1195 17.5271 13.9586 17.5937 13.8401 17.7123C13.7215 17.8309 13.6549 17.9917 13.6549 18.1594V33.6701C15.945 34.128 18.3049 34.109 20.5874 33.6145C22.8698 33.12 25.026 32.1604 26.9212 30.7957C28.8164 29.4311 30.4102 27.6905 31.603 25.6826C32.7958 23.6748 33.562 21.4427 33.854 19.1255C34.146 16.8084 33.9574 14.456 33.3 12.215C32.6426 9.97396 31.5305 7.89244 30.0331 6.10025C28.5356 4.30805 26.685 2.84362 24.5965 1.7983C22.5081 0.752984 20.2266 0.149197 17.8945 0.0246028ZM13.6549 12.5792C13.6549 12.7645 13.5812 12.9423 13.4502 13.0733C13.3192 13.2043 13.1415 13.2779 12.9561 13.2779C12.7708 13.2779 12.5931 13.2043 12.4621 13.0733C12.331 12.9423 12.2574 12.7645 12.2574 12.5792V4.08091C12.2574 3.8956 12.331 3.71788 12.4621 3.58685C12.5931 3.45581 12.7708 3.3822 12.9561 3.3822C13.1415 3.3822 13.3192 3.45581 13.4502 3.58685C13.5812 3.71788 13.6549 3.8956 13.6549 4.08091V12.5792Z" fill="#238FB5"/>
<path d="M44.3157 25.8072L46.2854 9.63255H41.1226L41.3028 8.30469H53.1587L52.7983 9.63255H47.7935L45.8238 25.8072H44.3157Z" fill="#238FB5"/>
<path d="M61.1322 21.0806H53.8227L51.755 25.8072H50.1426L58.0465 8.30469H59.9624L63.5477 25.8072H62.0396L61.1322 21.0806ZM54.3854 19.816H60.8761L58.9096 9.67049H58.8559L54.3854 19.816Z" fill="#238FB5"/>
<path d="M70.1274 8.30811L67.9744 25.8074H66.4663L68.6067 8.30811H70.1274Z" fill="#238FB5"/>
<path d="M77.3572 11.3715C77.1863 13.5734 76.9035 15.7651 76.5099 17.9381L75.0556 25.8073H71.7676L75.3402 8.1499H79.6304L81.2934 20.597H81.3946L86.02 8.1499H90.4936L89.7253 25.8073H86.4025L86.8135 17.9381C86.94 15.4089 87.272 12.5982 87.4775 11.3715H87.3731L82.5707 23.9704H79.3237L77.4584 11.3715H77.3572Z" fill="#238FB5"/>
<path d="M95.8842 20.7237C95.9854 22.7692 96.9813 23.6355 98.3376 23.6355C99.5137 23.6355 100.434 23.3573 101.736 22.4878L103.039 24.5302C101.65 25.5908 99.9555 26.1741 98.208 26.1932C94.5564 26.1932 92.5361 24.0718 92.5361 20.3411C92.5361 15.2288 95.6787 11.9092 99.8963 11.9092C102.887 11.9092 104.598 13.2876 104.598 15.4849C104.598 18.1944 102.144 20.2368 95.8842 20.7237ZM95.9854 18.6528C100.095 18.2956 101.224 17.1985 101.224 15.5861C101.224 14.7198 100.636 14.2329 99.6908 14.2329C98.0088 14.2329 96.428 15.8675 95.9854 18.6528Z" fill="#238FB5"/>
<path d="M115.534 13.3665L116.507 6.51855L119.751 6.87581L117.067 25.8105H114.18L114.206 23.9136C113.184 25.1782 111.778 26.1899 110.244 26.1899C107.715 26.1899 105.85 24.274 105.85 20.5686C105.85 15.1497 108.942 11.9059 112.059 11.9059C112.709 11.8886 113.355 12.0099 113.954 12.2618C114.553 12.5136 115.091 12.8902 115.534 13.3665ZM109.248 20.5749C109.248 22.8987 110.143 23.7175 111.319 23.7175C112.29 23.7175 113.466 22.7469 114.436 21.2136L115.227 15.5796C114.411 14.6312 113.646 14.3561 112.723 14.3561C111.038 14.3624 109.248 16.3036 109.248 20.5718V20.5749Z" fill="#238FB5"/>
<path d="M135.724 25.8075L136.95 16.9171C137.015 16.5454 137.049 16.1689 137.052 15.7916C137.052 14.8431 136.72 14.5902 136.182 14.5902C135.313 14.5902 134.086 15.5387 132.704 18.1438L131.629 25.8075H128.36L130.276 12.2917H133.122L132.919 14.9727C134.348 12.8545 135.856 11.9092 137.516 11.9092C138.999 11.9092 140.15 12.7502 140.327 14.6408C141.734 12.7249 143.242 11.9092 144.826 11.9092C146.514 11.9092 147.738 12.9051 147.738 15.1783C147.736 15.5462 147.71 15.9137 147.662 16.2785L146.309 25.8075H143.03L144.295 16.9171C144.342 16.5522 144.369 16.1849 144.374 15.8169C144.374 14.8463 144.058 14.5902 143.504 14.5902C142.66 14.5902 141.408 15.5387 140.055 18.0932L138.98 25.8075H135.724Z" fill="#238FB5"/>
<path d="M158.133 23.7644C157.111 24.9658 155.755 25.8068 154.402 25.8068C151.873 25.8068 150.007 23.9098 150.007 20.2361C150.007 15.3072 153.431 11.9085 157.595 11.9085C159.451 11.8862 161.282 12.3435 162.91 13.2364L161.24 25.0417C160.627 29.3351 158.278 31.3648 154.418 31.3648C152.665 31.322 150.951 30.8381 149.435 29.9579L150.586 27.6848C151.718 28.3538 153.002 28.7227 154.317 28.7565C156.258 28.7565 157.56 27.7101 157.892 25.3578L158.133 23.7644ZM158.515 20.9791L159.435 14.7444C158.851 14.4758 158.213 14.345 157.57 14.3619C155.474 14.3619 153.431 16.3031 153.431 20.2361C153.431 22.5124 154.301 23.3028 155.373 23.3028C156.368 23.3028 157.595 22.4618 158.515 20.9791Z" fill="#238FB5"/>
<path d="M122.833 12.231L121.183 25.8099H124.557L126.226 12.231H122.833Z" fill="#238FB5"/>
<path d="M124.797 10.5118C126.11 10.5118 127.174 9.4474 127.174 8.13434C127.174 6.82128 126.11 5.75684 124.797 5.75684C123.484 5.75684 122.419 6.82128 122.419 8.13434C122.419 9.4474 123.484 10.5118 124.797 10.5118Z" fill="#71CAE2"/>
</svg>
